<?xml version="1.0" encoding="UTF-8" standalone="no"?>
<!-- Created with Inkscape (http://www.inkscape.org/) -->

<svg
   width="1470"
   min-height="300"
   viewBox="0 0 388.93749 79.375002"
   version="1.1"
   id="svg39"
   inkscape:version="1.1 (c68e22c387, 2021-05-23)"
   sodipodi:docname="t3s.svg"
   xmlns:inkscape="http://www.inkscape.org/namespaces/inkscape"
   xmlns:sodipodi="http://sodipodi.sourceforge.net/DTD/sodipodi-0.dtd"
   xmlns="http://www.w3.org/2000/svg"
   xmlns:svg="http://www.w3.org/2000/svg">
  <sodipodi:namedview
     id="namedview41"
     pagecolor="#ffffff"
     bordercolor="#666666"
     borderopacity="1.0"
     inkscape:pageshadow="2"
     inkscape:pageopacity="0.0"
     inkscape:pagecheckerboard="0"
     inkscape:document-units="mm"
     showgrid="false"
     units="px"
     inkscape:zoom="0.47215208"
     inkscape:cx="-3.1769425"
     inkscape:cy="490.30812"
     inkscape:window-width="1360"
     inkscape:window-height="715"
     inkscape:window-x="-8"
     inkscape:window-y="-8"
     inkscape:window-maximized="1"
     inkscape:current-layer="g44196" />
  <defs
     id="defs36" />
  <g
     inkscape:label="Layer 1"
     inkscape:groupmode="layer"
     id="layer1">
    <g
       id="g44196"
       transform="translate(-12.054804,-8.3595547)">
      <g
         id="g985"
         transform="translate(-5.6417075,4.4156397)">
        <g
           aria-label="T3"
           id="text331"
           style="font-style:italic;font-size:74.7951px;line-height:1.25;font-family:Cloud;-inkscape-font-specification:'Cloud Italic';letter-spacing:-16.8289px;fill:#009f9f;stroke-width:0.224385"
           transform="translate(-53.889541,-218.72814)">
          <path
             d="M 121.5206,225.26124 H 76.808153 c -2.09426,0 -3.769668,1.6754 -3.769668,3.76966 v 9.42417 c 0,1.98955 1.675408,3.66496 3.769668,3.66496 h 13.403263 v 52.67064 c 0,2.09426 1.675408,3.76966 3.664955,3.76966 h 10.471299 c 2.09426,0 3.76967,-1.6754 3.76967,-3.76966 v -52.67064 h 13.40326 c 2.09426,0 3.76967,-1.67541 3.76967,-3.66496 v -9.42417 c 0,-2.09426 -1.67541,-3.76966 -3.76967,-3.76966 z"
             style="font-size:104.713px"
             id="path828" />
          <path
             d="m 144.73679,271.40971 c 4.41291,-2.39344 6.73156,-6.35758 6.73156,-11.06967 0,-8.67623 -6.43238,-15.10861 -18.3248,-15.10861 -7.7039,0 -14.06148,4.03893 -16.90369,10.02254 -0.67316,1.5707 0.22438,3.36578 1.86988,3.73976 l 7.18032,1.57069 c 0.89755,0.22439 1.79509,-0.14959 2.24386,-0.97233 0.89754,-1.79508 2.91701,-3.1414 5.60963,-3.1414 3.51537,0 5.90881,1.79509 5.90881,5.31046 0,3.51536 -2.54303,5.01127 -6.58197,5.01127 h -3.06659 c -1.04714,0 -1.94468,0.89754 -1.94468,2.01946 v 5.83402 c 0,1.12193 0.89754,2.01947 1.94468,2.01947 h 3.06659 c 3.73976,0 7.25513,1.34631 7.25513,5.38525 0,3.36578 -1.86988,6.13319 -6.58197,6.13319 -4.03894,0 -6.1332,-1.86987 -7.03074,-3.66496 -0.37397,-0.82274 -1.27152,-1.27151 -2.24385,-1.12192 l -7.7039,1.79508 c -1.57069,0.37398 -2.54303,2.01947 -1.94467,3.51537 2.61783,6.73156 10.24693,10.77049 18.92316,10.77049 12.04201,0 19.52152,-6.35758 19.52152,-15.70697 0,-6.13319 -2.91701,-10.09733 -7.92828,-12.34119 z"
             style="font-style:normal;font-weight:bold;font-family:'MADE Tommy Soft';-inkscape-font-specification:'MADE Tommy Soft Bold'"
             id="path830" />
        </g>
        <g
           aria-label="solutions."
           id="text28921"
           style="font-size:70.5556px;line-height:1.25;font-family:'MADE Tommy Soft';-inkscape-font-specification:'MADE Tommy Soft';stroke-width:0.264583"
           transform="translate(-53.889541,-218.72814)">
          <path
             d="m 179.60116,277.7973 c -4.09223,-0.84667 -8.96056,-1.12889 -8.96056,-5.15056 0,-2.96333 2.54,-5.00944 6.06778,-5.00944 3.24556,0 5.29167,1.41111 6.27945,2.96333 0.42333,0.70556 1.27,0.98778 2.04611,0.77611 l 2.54,-0.70555 c 1.12889,-0.28223 1.69334,-1.62278 1.12889,-2.68112 -1.97556,-3.88055 -6.42056,-6.06778 -11.35945,-6.06778 -7.83167,0 -13.26446,4.65667 -13.26446,11.21834 0,5.22112 2.96334,8.46667 9.59557,10.0189 5.00944,1.12889 11.00667,1.05833 11.00667,5.29167 0,3.175 -2.61056,5.08 -7.26723,5.08 -4.51555,0 -6.70278,-1.55222 -7.69056,-3.10444 -0.49389,-0.70556 -1.34055,-1.05834 -2.18722,-0.77612 l -2.82222,0.98778 c -1.05834,0.35278 -1.62278,1.62278 -1.05834,2.68111 2.25778,3.95112 7.4789,6.06779 13.61723,6.06779 9.45445,0 14.04057,-5.29167 14.04057,-11.57112 0,-5.43278 -2.96334,-8.18445 -11.71223,-10.0189 z"
             id="path833" />
          <path
             d="m 214.59667,261.92229 c -10.795,0 -18.76779,8.46667 -18.76779,18.76779 0,10.30112 7.97279,18.76779 18.76779,18.76779 10.79501,0 18.76779,-8.46667 18.76779,-18.76779 0,-10.30112 -7.97278,-18.76779 -18.76779,-18.76779 z m 0,31.39724 c -7.05556,0 -12.13556,-5.36222 -12.13556,-12.62945 0,-7.33778 5.08,-12.70001 12.13556,-12.70001 7.05556,0 12.20612,5.36223 12.20612,12.70001 0,7.26723 -5.15056,12.62945 -12.20612,12.62945 z"
             id="path835" />
          <path
             d="m 240.41998,251.05673 v 45.57892 c 0,1.05833 0.84666,1.905 1.905,1.905 h 2.68111 c 1.05833,0 1.83445,-0.84667 1.83445,-1.905 v -45.57892 c 0,-1.05834 -0.77612,-1.905 -1.83445,-1.905 h -2.68111 c -1.05834,0 -1.905,0.84666 -1.905,1.905 z"
             id="path837" />
          <path
             d="m 282.68269,262.76896 c -1.05833,0 -1.905,0.84667 -1.905,1.905 v 18.62668 c 0,4.23334 -2.68111,10.01889 -9.45445,10.01889 -6.70278,0 -8.89001,-5.00944 -8.89001,-10.01889 v -18.62668 c 0,-1.05833 -0.84666,-1.905 -1.83444,-1.905 h -2.68112 c -1.05833,0 -1.905,0.84667 -1.905,1.905 v 20.46112 c 0,7.62001 5.71501,14.25224 13.75835,14.25224 5.43278,0 8.89,-2.61056 11.00667,-5.85612 v 3.10445 c 0,1.05833 0.84667,1.905 1.905,1.905 h 2.68111 c 0.98778,0 1.83445,-0.84667 1.83445,-1.905 v -31.96169 c 0,-1.05833 -0.84667,-1.905 -1.83445,-1.905 z"
             id="path839" />
          <path
             d="m 312.73925,267.00229 v -2.32833 c 0,-1.05833 -0.84667,-1.905 -1.905,-1.905 h -6.42056 v -5.64445 c 0,-0.98778 -0.84667,-1.83445 -1.905,-1.83445 h -2.61056 c -1.05833,0 -1.905,0.84667 -1.905,1.83445 v 5.64445 h -4.23334 c -1.05833,0 -1.905,0.84667 -1.905,1.905 v 2.32833 c 0,1.05834 0.84667,1.90501 1.905,1.90501 h 4.23334 v 17.92112 c 0,7.90223 3.45722,12.06501 11.28889,12.06501 0.70556,0 1.41112,-0.0706 2.04612,-0.14111 0.77611,-0.0706 1.41111,-0.70556 1.41111,-1.55223 v -2.61055 c 0,-0.91723 -0.77611,-1.62278 -1.69334,-1.55223 -0.28222,0 -0.635,0 -0.98777,0 -5.50334,0 -5.64445,-3.38667 -5.64445,-8.46667 V 268.9073 h 6.42056 c 1.05833,0 1.905,-0.84667 1.905,-1.90501 z"
             id="path841" />
          <path
             d="m 322.82861,298.54065 h 2.61056 c 1.05833,0 1.905,-0.84667 1.905,-1.905 v -31.96169 c 0,-1.05833 -0.84667,-1.905 -1.905,-1.905 h -2.61056 c -1.05834,0 -1.905,0.84667 -1.905,1.905 v 31.96169 c 0,1.05833 0.84666,1.905 1.905,1.905 z m 1.27,-42.1217 c 2.04611,0 3.66889,-1.62277 3.66889,-3.66889 0,-2.04611 -1.62278,-3.66889 -3.66889,-3.66889 -1.97556,0 -3.66889,1.62278 -3.66889,3.66889 0,2.04612 1.69333,3.66889 3.66889,3.66889 z"
             id="path843" />
          <path
             d="m 353.16738,261.92229 c -10.79501,0 -18.76779,8.46667 -18.76779,18.76779 0,10.30112 7.97278,18.76779 18.76779,18.76779 10.79501,0 18.76779,-8.46667 18.76779,-18.76779 0,-10.30112 -7.97278,-18.76779 -18.76779,-18.76779 z m 0,31.39724 c -7.05556,0 -12.13556,-5.36222 -12.13556,-12.62945 0,-7.33778 5.08,-12.70001 12.13556,-12.70001 7.05556,0 12.20612,5.36223 12.20612,12.70001 0,7.26723 -5.15056,12.62945 -12.20612,12.62945 z"
             id="path845" />
          <path
             d="m 396.41792,261.92229 c -5.43278,0 -8.89001,2.68111 -11.00667,5.85612 v -3.10445 c 0,-1.05833 -0.84667,-1.905 -1.90501,-1.905 h -2.68111 c -1.05833,0 -1.83444,0.84667 -1.83444,1.905 v 31.96169 c 0,1.05833 0.77611,1.905 1.83444,1.905 h 2.68111 c 1.05834,0 1.90501,-0.84667 1.90501,-1.905 v -18.62668 c 0,-4.16278 2.68111,-10.0189 9.45445,-10.0189 6.70278,0 8.89,5.00945 8.89,10.0189 v 18.62668 c 0,1.05833 0.84667,1.905 1.83445,1.905 h 2.68111 c 1.05834,0 1.905,-0.84667 1.905,-1.905 v -20.46113 c 0,-7.62 -5.715,-14.25223 -13.75834,-14.25223 z"
             id="path847" />
          <path
             d="m 432.96563,277.7973 c -4.09223,-0.84667 -8.96056,-1.12889 -8.96056,-5.15056 0,-2.96333 2.54,-5.00944 6.06778,-5.00944 3.24556,0 5.29167,1.41111 6.27945,2.96333 0.42333,0.70556 1.27,0.98778 2.04611,0.77611 l 2.54,-0.70555 c 1.12889,-0.28223 1.69334,-1.62278 1.12889,-2.68112 -1.97556,-3.88055 -6.42056,-6.06778 -11.35945,-6.06778 -7.83167,0 -13.26445,4.65667 -13.26445,11.21834 0,5.22112 2.96333,8.46667 9.59556,10.0189 5.00945,1.12889 11.00667,1.05833 11.00667,5.29167 0,3.175 -2.61055,5.08 -7.26722,5.08 -4.51556,0 -6.70279,-1.55222 -7.69057,-3.10444 -0.49388,-0.70556 -1.34055,-1.05834 -2.18722,-0.77612 l -2.82222,0.98778 c -1.05834,0.35278 -1.62278,1.62278 -1.05834,2.68111 2.25778,3.95112 7.4789,6.06779 13.61723,6.06779 9.45445,0 14.04057,-5.29167 14.04057,-11.57112 0,-5.43278 -2.96334,-8.18445 -11.71223,-10.0189 z"
             id="path849" />
          <path
             d="m 454.62612,290.63842 c -2.39889,0 -4.37445,1.97556 -4.37445,4.37445 0,2.46945 1.97556,4.445 4.37445,4.445 2.46945,0 4.445,-1.97555 4.445,-4.445 0,-2.39889 -1.97555,-4.37445 -4.445,-4.37445 z"
             style="fill:#008080"
             id="path851" />
        </g>
      </g>
    </g>
  </g>
</svg>
